<mxfile host="app.diagrams.net" modified="2023-10-26T02:18:20.929Z" agent="Mozilla/5.0 (Windows NT 10.0; Win64; x64) AppleWebKit/537.36 (KHTML, like Gecko) Chrome/93.0.4577.63 Safari/537.36 Edg/93.0.961.47" etag="keMOzbNz8s1aOJjLGsjr" version="22.0.7" type="github">
  <diagram name="第 1 页" id="ilV6jtiA242pUHga_PFw">
    <mxGraphModel dx="2117" dy="580" grid="1" gridSize="10" guides="1" tooltips="1" connect="1" arrows="1" fold="1" page="1" pageScale="1" pageWidth="827" pageHeight="1169" math="0" shadow="0">
      <root>
        <mxCell id="0" />
        <mxCell id="1" parent="0" />
        <mxCell id="cqoPh1EnVh_5a1swYAHd-12" style="edgeStyle=orthogonalEdgeStyle;rounded=0;orthogonalLoop=1;jettySize=auto;html=1;entryX=0;entryY=0.5;entryDx=0;entryDy=0;" edge="1" parent="1" source="cqoPh1EnVh_5a1swYAHd-1" target="cqoPh1EnVh_5a1swYAHd-9">
          <mxGeometry relative="1" as="geometry" />
        </mxCell>
        <mxCell id="cqoPh1EnVh_5a1swYAHd-1" value="建模历史添加开始" style="rounded=1;whiteSpace=wrap;html=1;" vertex="1" parent="1">
          <mxGeometry x="-10" y="140" width="120" height="60" as="geometry" />
        </mxCell>
        <mxCell id="cqoPh1EnVh_5a1swYAHd-11" value="" style="edgeStyle=orthogonalEdgeStyle;rounded=0;orthogonalLoop=1;jettySize=auto;html=1;entryX=0;entryY=0.5;entryDx=0;entryDy=0;" edge="1" parent="1" source="cqoPh1EnVh_5a1swYAHd-9" target="cqoPh1EnVh_5a1swYAHd-13">
          <mxGeometry relative="1" as="geometry">
            <mxPoint x="290" y="170" as="targetPoint" />
          </mxGeometry>
        </mxCell>
        <mxCell id="cqoPh1EnVh_5a1swYAHd-9" value="创建特征对象加入特征历史容器" style="rounded=0;whiteSpace=wrap;html=1;" vertex="1" parent="1">
          <mxGeometry x="140" y="140" width="120" height="60" as="geometry" />
        </mxCell>
        <mxCell id="cqoPh1EnVh_5a1swYAHd-17" style="edgeStyle=orthogonalEdgeStyle;rounded=0;orthogonalLoop=1;jettySize=auto;html=1;entryX=0;entryY=0.5;entryDx=0;entryDy=0;" edge="1" parent="1" source="cqoPh1EnVh_5a1swYAHd-13" target="cqoPh1EnVh_5a1swYAHd-16">
          <mxGeometry relative="1" as="geometry" />
        </mxCell>
        <mxCell id="cqoPh1EnVh_5a1swYAHd-13" value="更新特征历史树" style="whiteSpace=wrap;html=1;rounded=0;" vertex="1" parent="1">
          <mxGeometry x="294" y="140" width="120" height="60" as="geometry" />
        </mxCell>
        <mxCell id="cqoPh1EnVh_5a1swYAHd-16" value="建模历史添加结束" style="rounded=1;whiteSpace=wrap;html=1;" vertex="1" parent="1">
          <mxGeometry x="460" y="140" width="120" height="60" as="geometry" />
        </mxCell>
      </root>
    </mxGraphModel>
  </diagram>
</mxfile>
